<svg xmlns="http://www.w3.org/2000/svg" viewBox="-2.0 89.5 180.0 180.0" width="180" height="180">
  <defs><clipPath id="tr"><rect x="86.0" y="106.9" width="90.0" height="68.7"/></clipPath><clipPath id="lc"><path d="M -182.0 -90.5 H 358.0 V 178.8 H 158.0 V 449.5 H 18.0 V 177.9 H -182.0 Z"/></clipPath><clipPath id="dc"><path d="M -182.0 449.5 H 358.0 V 188.0 H 158.0 V -90.5 H 18.0 V 188.0 H -182.0 Z"/></clipPath></defs>
  <g clip-path="url(#dc)"><path d="M 51.000 149.657 C 45.001 152.073, 43.211 158.305, 45.979 167.136 C 48.645 175.639, 48.653 183.347, 46.000 186.000 C 44.133 187.867, 42.667 188.000, 24.000 188.000 L 4.000 188.000 4.000 213.050 C 4.000 240.329, 4.280 241.929, 9.699 245.602 C 13.772 248.362, 155.707 249.123, 162.835 246.416 C 170.714 243.424, 170.992 242.296, 170.996 213.250 L 171.000 188.000 159.111 188.000 C 148.951 188.000, 146.883 188.274, 144.892 189.886 L 142.563 191.772 144.281 197.224 C 146.637 204.697, 146.456 210.637, 143.725 215.458 C 135.090 230.704, 111.872 228.628, 106.172 212.101 C 104.467 207.157, 104.704 204.643, 107.500 198.000 C 110.458 190.973, 110.395 191.538, 108.429 189.571 C 107.075 188.218, 102.991 188.000, 92.000 188.000 L 67.145 188.000 65.073 185.365 C 62.393 181.958, 62.375 175.577, 65.021 167.136 C 67.264 159.978, 66.604 154.761, 63.045 151.541 C 61.035 149.721, 53.691 148.573, 51.000 149.657" fill="#3388ff"/><path d="M -182.0 230.1 H 358.0 V 449.5 H -182.0 Z" fill="#3388ff"/><path d="M -182.0 -90.5 H 18.0 V 449.5 H -182.0 Z" fill="#3388ff"/><path d="M 158.0 -90.5 H 358.0 V 449.5 H 158.0 Z" fill="#3388ff"/></g>
  <g clip-path="url(#lc)"><path d="M 9.763 112.565 C 4.371 115.491, 4.000 117.579, 4.000 145.000 C 4.000 178.897, 3.600 178.270, 24.929 177.782 C 39.807 177.442, 40.514 176.946, 37.173 169.179 C 30.873 154.535, 39.500 140.959, 55.066 141.022 C 70.046 141.083, 78.260 152.234, 74.370 167.232 C 71.567 178.040, 69.934 177.414, 92.000 178.000 L 114.176 178.500 116.588 181.306 C 119.631 184.846, 119.766 190.462, 117.000 198.500 C 114.506 205.749, 114.491 208.653, 116.926 212.647 C 120.918 219.193, 131.082 219.193, 135.074 212.647 C 137.545 208.594, 137.498 205.188, 134.857 196.989 C 132.467 189.566, 132.797 184.698, 135.954 180.821 C 137.801 178.554, 138.195 178.507, 152.886 178.786 C 170.101 179.113, 172.000 178.383, 172.000 171.434 C 172.000 166.290, 170.464 164.000, 167.014 164.000 C 147.101 164.000, 123.888 145.311, 119.921 126.085 C 118.195 117.721, 116.175 113.401, 113.399 112.136 C 109.228 110.235, 13.316 110.637, 9.763 112.565" fill="#55aaff"/><path d="M 166.237 112.565 C 171.629 115.491, 172.000 117.579, 172.000 145.000 C 172.000 178.897, 172.400 178.270, 151.071 177.782 C 136.193 177.442, 135.486 176.946, 138.827 169.179 C 145.127 154.535, 136.500 140.959, 120.934 141.022 C 105.954 141.083, 97.740 152.234, 101.630 167.232 C 104.433 178.040, 106.066 177.414, 84.000 178.000 L 61.824 178.500 59.412 181.306 C 56.369 184.846, 56.234 190.462, 59.000 198.500 C 61.494 205.749, 61.509 208.653, 59.074 212.647 C 55.082 219.193, 44.918 219.193, 40.926 212.647 C 38.455 208.594, 38.502 205.188, 41.143 196.989 C 43.533 189.566, 43.203 184.698, 40.046 180.821 C 38.199 178.554, 37.805 178.507, 23.114 178.786 C 5.899 179.113, 4.000 178.383, 4.000 171.434 C 4.000 166.290, 5.536 164.000, 8.986 164.000 C 28.899 164.000, 52.112 145.311, 56.079 126.085 C 57.805 117.721, 59.825 113.401, 62.601 112.136 C 66.772 110.235, 162.684 110.637, 166.237 112.565" fill="#55aaff" clip-path="url(#tr)"/><path d="M 123 138 L 142 138 L 142 154 L 123 154 Z" fill="#55aaff"/><path d="M -182.0 -90.5 H 358.0 V 128.9 H -182.0 Z" fill="#55aaff"/><path d="M -182.0 -90.5 H 18.0 V 449.5 H -182.0 Z" fill="#55aaff"/><path d="M 158.0 -90.5 H 358.0 V 449.5 H 158.0 Z" fill="#55aaff"/></g>
</svg>
