<svg xmlns="http://www.w3.org/2000/svg" viewBox="-2.4 54.0 214.5 214.5" width="215" height="215">
  <path d="M 51.000 149.657 C 45.001 152.073, 43.211 158.305, 45.979 167.136 C 48.645 175.639, 48.653 183.347, 46.000 186.000 C 44.133 187.867, 42.667 188.000, 24.000 188.000 L 4.000 188.000 4.000 213.050 C 4.000 240.329, 4.280 241.929, 9.699 245.602 C 13.772 248.362, 155.707 249.123, 162.835 246.416 C 170.714 243.424, 170.992 242.296, 170.996 213.250 L 171.000 188.000 159.111 188.000 C 148.951 188.000, 146.883 188.274, 144.892 189.886 L 142.563 191.772 144.281 197.224 C 146.637 204.697, 146.456 210.637, 143.725 215.458 C 135.090 230.704, 111.872 228.628, 106.172 212.101 C 104.467 207.157, 104.704 204.643, 107.500 198.000 C 110.458 190.973, 110.395 191.538, 108.429 189.571 C 107.075 188.218, 102.991 188.000, 92.000 188.000 L 67.145 188.000 65.073 185.365 C 62.393 181.958, 62.375 175.577, 65.021 167.136 C 67.264 159.978, 66.604 154.761, 63.045 151.541 C 61.035 149.721, 53.691 148.573, 51.000 149.657" fill="#3388ff"/>
  <path d="M 9.763 112.565 C 4.371 115.491, 4.000 117.579, 4.000 145.000 C 4.000 178.897, 3.600 178.270, 24.929 177.782 C 39.807 177.442, 40.514 176.946, 37.173 169.179 C 30.873 154.535, 39.500 140.959, 55.066 141.022 C 70.046 141.083, 78.260 152.234, 74.370 167.232 C 71.567 178.040, 69.934 177.414, 92.000 178.000 L 114.176 178.500 116.588 181.306 C 119.631 184.846, 119.766 190.462, 117.000 198.500 C 114.506 205.749, 114.491 208.653, 116.926 212.647 C 120.918 219.193, 131.082 219.193, 135.074 212.647 C 137.545 208.594, 137.498 205.188, 134.857 196.989 C 132.467 189.566, 132.797 184.698, 135.954 180.821 C 137.801 178.554, 138.195 178.507, 152.886 178.786 C 170.101 179.113, 172.000 178.383, 172.000 171.434 C 172.000 166.290, 170.464 164.000, 167.014 164.000 C 147.101 164.000, 123.888 145.311, 119.921 126.085 C 118.195 117.721, 116.175 113.401, 113.399 112.136 C 109.228 110.235, 13.316 110.637, 9.763 112.565" fill="#55aaff"/>
  <path d="M 154.079 77.643 C 144.398 81.032, 136.186 88.330, 131.380 97.816 C 127.246 105.976, 127.128 121.573, 131.135 130.120 C 145.140 159.988, 187.268 160.158, 201.192 130.404 C 206.140 119.830, 205.627 102.213, 200.212 96.783 C 197.843 94.407, 197.724 94.535, 185.595 112.500 C 173.431 130.518, 172.050 132.014, 167.639 131.965 C 162.576 131.907, 160.605 130.133, 152.125 118.000 C 143.447 105.584, 143.411 105.227, 150.827 105.070 C 154.555 104.992, 157.340 107.378, 162.729 115.271 C 166.327 120.539, 167.852 121.064, 169.929 117.750 C 177.403 105.821, 188.000 86.682, 188.000 85.113 C 188.000 78.154, 166.281 73.372, 154.079 77.643" fill="#44bb55"/>
</svg>
